<?xml version="1.0" standalone="no"?>
<!DOCTYPE svg PUBLIC "-//W3C//DTD SVG 20010904//EN"
 "http://www.w3.org/TR/2001/REC-SVG-20010904/DTD/svg10.dtd">
<svg version="1.0" xmlns="http://www.w3.org/2000/svg"
 width="512.000000pt" height="512.000000pt" viewBox="0 0 512.000000 512.000000"
 preserveAspectRatio="xMidYMid meet">
<metadata>
Created by potrace 1.11, written by Peter Selinger 2001-2013
</metadata>
<g transform="translate(0.000000,512.000000) scale(0.100000,-0.100000)"
fill="#000000" stroke="none">
<path d="M1225 5086 c-95 -30 -163 -88 -202 -173 -30 -65 -32 -75 -34 -189
l-1 -94 -35 0 c-25 0 -32 3 -27 13 6 9 5 9 -7 0 -11 -9 -64 -12 -174 -12 -149
0 -159 -2 -181 -22 -13 -13 -24 -30 -24 -40 0 -18 -12 -22 -95 -34 -222 -32
-371 -57 -386 -66 -10 -5 -23 -18 -29 -29 -11 -20 -14 -339 -4 -377 10 -35 44
-51 147 -64 52 -7 94 -16 91 -20 -2 -4 4 -5 15 -2 10 2 57 -2 103 -11 47 -9
99 -16 116 -16 25 0 33 -5 38 -25 3 -14 18 -34 31 -45 24 -18 41 -20 224 -20
l199 0 -1 -174 0 -175 -203 -3 c-184 -3 -206 -5 -225 -22 -12 -11 -21 -27 -21
-37 0 -10 -8 -20 -17 -23 -22 -6 -124 -24 -177 -31 -44 -5 -114 -16 -136 -20
-8 -2 -42 -7 -75 -11 -46 -5 -66 -13 -87 -35 l-28 -27 0 -181 c0 -172 1 -181
22 -205 15 -17 37 -28 63 -31 22 -2 51 -7 65 -10 14 -3 41 -7 60 -9 19 -2 96
-14 172 -27 134 -22 136 -23 142 -50 9 -48 33 -53 246 -53 l195 -1 0 -175 0
-175 -190 0 c-104 -1 -200 -4 -212 -8 -11 -4 -28 -23 -37 -42 -13 -27 -24 -35
-51 -40 -19 -3 -52 -8 -72 -11 -21 -3 -50 -8 -65 -9 -15 -2 -55 -9 -89 -15
-34 -6 -83 -13 -108 -15 -60 -4 -116 -27 -130 -53 -7 -13 -11 -90 -11 -199 1
-223 -1 -221 135 -239 28 -3 52 -8 55 -9 3 -2 33 -6 65 -10 33 -4 76 -10 95
-15 19 -5 63 -11 98 -15 55 -6 63 -10 68 -31 3 -13 19 -33 34 -44 26 -18 44
-20 224 -20 l195 0 0 -175 1 -175 -195 0 c-214 0 -243 -6 -252 -52 -3 -15 -8
-28 -12 -29 -3 0 -17 -3 -31 -5 -99 -18 -202 -34 -240 -39 -25 -3 -81 -12
-125 -20 -116 -22 -115 -19 -115 -243 0 -181 0 -183 25 -207 13 -14 32 -25 42
-26 10 0 27 -2 38 -4 11 -2 40 -7 65 -11 25 -4 47 -8 50 -9 3 0 32 -5 65 -10
33 -5 62 -9 65 -10 3 0 32 -5 65 -9 90 -11 105 -16 105 -35 0 -10 11 -27 24
-40 22 -21 30 -22 225 -21 l201 0 0 -105 c0 -95 3 -112 29 -168 34 -75 86
-128 160 -165 l56 -27 1325 0 1325 0 47 22 c63 29 134 97 164 155 30 60 32 72
33 190 l1 96 200 1 c216 1 237 6 247 53 5 27 18 31 153 52 322 49 325 50 348
75 21 23 22 31 22 195 0 94 -3 181 -6 193 -8 30 -41 50 -94 57 -25 3 -54 8
-65 10 -11 2 -40 7 -65 10 -25 3 -56 8 -70 10 -44 8 -164 26 -190 30 -16 2
-26 10 -28 24 -2 12 -15 31 -29 42 -24 19 -40 20 -223 20 l-198 0 -1 175 -1
175 189 0 c104 0 201 4 216 10 15 6 32 24 41 45 10 25 21 35 37 36 12 0 31 2
42 4 11 2 38 7 60 10 22 3 51 7 65 9 14 3 75 12 135 21 134 20 159 29 174 61
7 16 11 91 11 198 0 157 -2 176 -20 198 -12 16 -34 28 -57 32 -21 3 -49 8 -63
10 -33 6 -167 26 -205 32 -156 21 -164 23 -179 59 -8 18 -25 37 -38 41 -12 4
-106 8 -208 9 -102 2 -188 3 -192 4 -3 0 -6 79 -5 173 l2 173 192 0 c203 1
235 7 250 49 4 12 6 24 5 28 -1 6 31 13 113 22 17 2 57 9 90 15 33 5 78 13
100 16 36 5 58 8 120 20 11 2 26 4 33 4 7 1 24 12 37 26 25 24 25 26 25 207
-1 237 7 225 -164 249 -44 6 -83 12 -86 14 -3 1 -30 6 -60 10 -174 21 -205 29
-208 52 -2 13 -15 32 -29 43 -24 19 -40 20 -224 20 l-198 0 0 175 0 175 206 2
207 3 27 39 c14 22 33 41 40 42 8 1 106 17 219 34 112 17 213 36 225 42 41 23
44 36 45 215 0 178 -6 215 -38 232 -10 5 -95 21 -188 36 -166 25 -242 37 -256
41 -5 1 -15 2 -23 3 -8 0 -15 9 -15 19 0 10 -11 29 -24 41 -23 22 -30 23 -224
23 l-201 0 -1 96 c0 118 0 114 -32 182 -32 69 -85 122 -157 158 l-56 27 -1310
2 c-1033 1 -1318 -1 -1350 -11z m2616 -152 c41 -7 98 -55 117 -97 9 -22 12
-536 12 -2278 0 -2058 -1 -2253 -16 -2282 -9 -18 -25 -40 -36 -50 -50 -48 -2
-47 -1360 -47 l-1274 0 -44 22 c-30 15 -53 37 -67 63 l-23 40 0 2255 0 2255
23 40 c13 22 40 49 62 62 l40 23 1265 0 c696 0 1281 -3 1301 -6z m-2855 -689
l-1 -225 -142 0 -143 0 0 225 0 225 143 0 144 0 -1 -225z m3434 0 l0 -225
-143 0 -143 0 0 225 -1 225 144 0 143 0 0 -225z m-3885 -1 l0 -136 -50 5 c-27
4 -59 8 -70 10 -11 3 -42 8 -70 11 -179 24 -165 15 -165 110 l0 83 108 18 c59
10 125 19 146 21 22 3 42 6 44 9 3 3 17 5 31 5 l26 0 0 -136z m4141 127 c27
-5 74 -12 104 -16 30 -4 77 -11 104 -16 27 -5 50 -9 52 -9 2 0 4 -38 4 -85 0
-47 -3 -85 -7 -85 -5 0 -61 -9 -127 -20 -200 -34 -216 -35 -217 -14 -3 52 -4
240 -1 247 4 9 29 9 88 -2z m-3691 -1251 l0 -225 -140 0 -140 1 -3 226 -2 227
142 -2 143 -2 0 -225z m3433 3 l-3 -228 -140 0 -140 1 0 227 -1 227 143 0 143
0 -2 -227z m-3887 117 c1 -19 1 -208 0 -238 -1 -17 -6 -22 -18 -18 -10 2 -38
7 -63 11 -25 3 -94 13 -155 23 l-110 17 0 84 0 85 75 12 c41 7 95 16 120 19
25 3 61 10 80 14 50 12 70 9 71 -9z m4215 0 c71 -11 140 -21 154 -24 14 -2 28
-5 33 -5 4 -1 7 -39 7 -85 0 -98 17 -85 -155 -111 -55 -8 -121 -18 -147 -23
-33 -7 -48 -6 -50 2 -3 9 -2 255 1 264 2 5 32 1 157 -18z m-3776 -1019 c14 -1
16 -31 15 -223 l0 -223 -142 -3 -143 -3 0 228 0 228 128 -1 c70 -1 134 -3 142
-3z m3450 -223 l0 -227 -143 0 -143 -1 -1 223 c0 122 3 224 8 227 4 3 69 5
143 5 l136 0 0 -227z m255 128 c22 -3 86 -12 142 -20 57 -9 108 -16 113 -16 7
0 10 -31 8 -87 l-3 -88 -75 -11 c-41 -7 -88 -14 -105 -17 -58 -9 -105 -17
-137 -22 l-33 -5 1 123 c2 169 1 158 27 153 12 -3 40 -7 62 -10z m-4140 -131
c0 -83 -4 -135 -10 -135 -10 0 -122 17 -165 24 -14 3 -60 10 -102 17 l-78 12
0 83 c0 49 4 84 10 84 6 0 12 1 15 2 14 5 275 46 300 47 l30 1 0 -135z m450
-1122 l1 -223 -143 0 -143 0 0 225 0 226 143 -3 142 -3 0 -222z m3435 2 l0
-225 -143 0 -144 0 2 223 c1 122 3 223 3 225 1 1 65 2 142 2 l140 0 0 -225z
m240 128 c8 -4 18 -6 21 -5 6 1 43 -4 164 -24 22 -4 49 -8 60 -9 11 -1 23 -3
28 -4 4 0 7 -39 7 -86 0 -47 -3 -85 -7 -85 -5 0 -35 -5 -68 -10 -33 -5 -80
-12 -104 -15 -24 -3 -47 -7 -50 -9 -3 -2 -33 -7 -66 -10 l-60 -7 2 118 c2 175
-1 161 31 156 15 -3 34 -7 42 -10z m-4126 -126 c1 -71 -1 -133 -4 -137 -3 -5
-23 -5 -45 0 -22 4 -59 11 -82 14 -53 7 -170 25 -200 32 -22 4 -23 9 -23 89 0
47 3 85 8 85 4 0 34 5 67 10 33 5 79 13 102 16 22 3 63 9 90 14 92 15 87 22
87 -123z"/>
<path d="M1361 4726 c-17 -20 -17 -4312 0 -4332 10 -12 189 -14 1202 -12 1121
3 1190 4 1201 21 8 12 8 22 0 35 -11 16 -79 17 -1173 20 l-1161 2 -1 2120 c-1
1166 -2 2123 -3 2128 -6 32 -44 43 -65 18z"/>
<path d="M3259 4711 c-50 -10 -118 -47 -158 -84 -181 -171 -132 -475 94 -577
63 -29 67 -29 155 -31 102 -1 208 54 273 141 48 66 66 126 64 216 -3 141 -76
252 -204 311 -57 26 -162 38 -224 24z m214 -105 c55 -32 80 -59 113 -125 24
-49 26 -62 21 -126 -11 -148 -116 -248 -262 -249 -239 -3 -362 268 -205 448
82 92 226 115 333 52z"/>
</g>
</svg>
